<svg width="1280" height="640" viewBox="0 0 1280 640" fill="none" xmlns="http://www.w3.org/2000/svg">
  <defs>
    <linearGradient id="bg" x1="114" y1="72" x2="1172" y2="592" gradientUnits="userSpaceOnUse">
      <stop stop-color="#0F172A"/>
      <stop offset="0.52" stop-color="#102A43"/>
      <stop offset="1" stop-color="#0B3B2E"/>
    </linearGradient>
    <linearGradient id="card" x1="170" y1="118" x2="1040" y2="532" gradientUnits="userSpaceOnUse">
      <stop stop-color="#F8FAFC" stop-opacity="0.15"/>
      <stop offset="1" stop-color="#F8FAFC" stop-opacity="0.04"/>
    </linearGradient>
    <linearGradient id="lineA" x1="0" y1="0" x2="1" y2="1">
      <stop stop-color="#F59E0B"/>
      <stop offset="1" stop-color="#FB7185"/>
    </linearGradient>
    <linearGradient id="lineB" x1="0" y1="0" x2="1" y2="1">
      <stop stop-color="#38BDF8"/>
      <stop offset="1" stop-color="#22C55E"/>
    </linearGradient>
    <filter id="blur" x="0" y="0" width="1280" height="640" filterUnits="userSpaceOnUse">
      <feGaussianBlur stdDeviation="28"/>
    </filter>
  </defs>

  <rect width="1280" height="640" rx="32" fill="url(#bg)"/>

  <g filter="url(#blur)" opacity="0.5">
    <circle cx="205" cy="112" r="94" fill="#2563EB"/>
    <circle cx="1080" cy="508" r="120" fill="#16A34A"/>
    <circle cx="996" cy="128" r="78" fill="#F59E0B"/>
  </g>

  <rect x="84" y="72" width="1112" height="496" rx="28" fill="url(#card)" stroke="rgba(248,250,252,0.16)"/>

  <g opacity="0.95">
    <path d="M888 194C951.667 194 1003.33 245.667 1003.33 309.333C1003.33 373 951.667 424.667 888 424.667C824.333 424.667 772.667 373 772.667 309.333C772.667 245.667 824.333 194 888 194Z" fill="#F8FAFC" fill-opacity="0.08" stroke="#F8FAFC" stroke-opacity="0.16"/>
    <path d="M887.999 240L907.31 279.125L950.491 285.401L919.245 315.86L926.622 358.866L887.999 338.564L849.377 358.866L856.754 315.86L825.507 285.401L868.688 279.125L887.999 240Z" fill="url(#lineA)"/>
  </g>

  <g opacity="0.9">
    <path d="M240 394C240 379.641 251.641 368 266 368H658C672.359 368 684 379.641 684 394V420C684 434.359 672.359 446 658 446H266C251.641 446 240 434.359 240 420V394Z" fill="#F8FAFC" fill-opacity="0.08"/>
    <path d="M240 332C240 317.641 251.641 306 266 306H604C618.359 306 630 317.641 630 332V358C630 372.359 618.359 384 604 384H266C251.641 384 240 372.359 240 358V332Z" fill="#F8FAFC" fill-opacity="0.07"/>
    <path d="M240 270C240 255.641 251.641 244 266 244H544C558.359 244 570 255.641 570 270V296C570 310.359 558.359 322 544 322H266C251.641 322 240 310.359 240 296V270Z" fill="#F8FAFC" fill-opacity="0.06"/>
  </g>

  <g stroke="url(#lineB)" stroke-width="5" stroke-linecap="round" stroke-linejoin="round">
    <path d="M266 476L344 436L418 458L508 402L586 424L666 338L748 370L832 300"/>
    <circle cx="266" cy="476" r="8" fill="#38BDF8"/>
    <circle cx="344" cy="436" r="8" fill="#38BDF8"/>
    <circle cx="418" cy="458" r="8" fill="#38BDF8"/>
    <circle cx="508" cy="402" r="8" fill="#38BDF8"/>
    <circle cx="586" cy="424" r="8" fill="#38BDF8"/>
    <circle cx="666" cy="338" r="8" fill="#38BDF8"/>
    <circle cx="748" cy="370" r="8" fill="#38BDF8"/>
    <circle cx="832" cy="300" r="8" fill="#38BDF8"/>
  </g>

  <text x="160" y="188" fill="#E2E8F0" font-family="Segoe UI, Arial, sans-serif" font-size="26" letter-spacing="4">OPEN ACADEMIC JOURNAL RANKING PIPELINE</text>
  <text x="156" y="248" fill="#FFFFFF" font-family="Georgia, Times New Roman, serif" font-size="76" font-weight="700">OpenSCIRanking</text>
  <text x="160" y="506" fill="#CBD5E1" font-family="Segoe UI, Arial, sans-serif" font-size="28">Bottom-up journal ranking from citation networks, OpenAlex data, and transparent scoring rules.</text>
  <text x="160" y="548" fill="#94A3B8" font-family="Segoe UI, Arial, sans-serif" font-size="24">自下而上的期刊排序框架：以开放数据、引用网络和可解释规则替代拍脑袋分区。</text>
</svg>
