<svg width="1280" height="640" viewBox="0 0 1280 640" fill="none" xmlns="http://www.w3.org/2000/svg">
  <defs>
    <linearGradient id="bg" x1="94" y1="64" x2="1186" y2="586" gradientUnits="userSpaceOnUse">
      <stop stop-color="#0B1220"/>
      <stop offset="0.55" stop-color="#0E2238"/>
      <stop offset="1" stop-color="#132A1C"/>
    </linearGradient>
    <linearGradient id="glass" x1="168" y1="114" x2="1112" y2="540" gradientUnits="userSpaceOnUse">
      <stop stop-color="#FFFFFF" stop-opacity="0.12"/>
      <stop offset="1" stop-color="#FFFFFF" stop-opacity="0.04"/>
    </linearGradient>
    <linearGradient id="accent" x1="265" y1="424" x2="860" y2="274" gradientUnits="userSpaceOnUse">
      <stop stop-color="#38BDF8"/>
      <stop offset="0.5" stop-color="#60A5FA"/>
      <stop offset="1" stop-color="#22C55E"/>
    </linearGradient>
    <linearGradient id="gold" x1="0" y1="0" x2="1" y2="1">
      <stop stop-color="#FBBF24"/>
      <stop offset="1" stop-color="#FB7185"/>
    </linearGradient>
    <filter id="blur" x="0" y="0" width="1280" height="640" filterUnits="userSpaceOnUse">
      <feGaussianBlur stdDeviation="36"/>
    </filter>
  </defs>

  <rect width="1280" height="640" rx="28" fill="url(#bg)"/>

  <g opacity="0.28">
    <path d="M120 120H1160" stroke="#94A3B8" stroke-opacity="0.2"/>
    <path d="M120 200H1160" stroke="#94A3B8" stroke-opacity="0.2"/>
    <path d="M120 280H1160" stroke="#94A3B8" stroke-opacity="0.2"/>
    <path d="M120 360H1160" stroke="#94A3B8" stroke-opacity="0.2"/>
    <path d="M120 440H1160" stroke="#94A3B8" stroke-opacity="0.2"/>
    <path d="M120 520H1160" stroke="#94A3B8" stroke-opacity="0.2"/>
    <path d="M160 84V556" stroke="#94A3B8" stroke-opacity="0.16"/>
    <path d="M300 84V556" stroke="#94A3B8" stroke-opacity="0.16"/>
    <path d="M440 84V556" stroke="#94A3B8" stroke-opacity="0.16"/>
    <path d="M580 84V556" stroke="#94A3B8" stroke-opacity="0.16"/>
    <path d="M720 84V556" stroke="#94A3B8" stroke-opacity="0.16"/>
    <path d="M860 84V556" stroke="#94A3B8" stroke-opacity="0.16"/>
    <path d="M1000 84V556" stroke="#94A3B8" stroke-opacity="0.16"/>
  </g>

  <g filter="url(#blur)" opacity="0.5">
    <circle cx="1060" cy="128" r="78" fill="#3B82F6"/>
    <circle cx="968" cy="504" r="104" fill="#16A34A"/>
    <circle cx="250" cy="128" r="84" fill="#F59E0B"/>
  </g>

  <rect x="88" y="72" width="1104" height="496" rx="26" fill="url(#glass)" stroke="#FFFFFF" stroke-opacity="0.12"/>

  <g opacity="0.95">
    <rect x="764" y="138" width="332" height="324" rx="22" fill="#FFFFFF" fill-opacity="0.06" stroke="#FFFFFF" stroke-opacity="0.12"/>
    <text x="792" y="184" fill="#E2E8F0" font-family="Segoe UI, Arial, sans-serif" font-size="20" letter-spacing="2">CITATION NETWORK</text>
    <circle cx="840" cy="250" r="16" fill="#F8FAFC"/>
    <circle cx="928" cy="230" r="12" fill="#93C5FD"/>
    <circle cx="1010" cy="280" r="14" fill="#86EFAC"/>
    <circle cx="874" cy="340" r="14" fill="#FDE68A"/>
    <circle cx="980" cy="360" r="18" fill="#FCA5A5"/>
    <circle cx="1060" cy="230" r="11" fill="#C4B5FD"/>
    <circle cx="1042" cy="396" r="13" fill="#67E8F9"/>
    <path d="M840 250L928 230L1010 280L980 360L874 340L840 250Z" stroke="url(#accent)" stroke-width="4" stroke-linecap="round" stroke-linejoin="round"/>
    <path d="M928 230L1060 230M1010 280L1042 396M874 340L980 360M928 230L874 340" stroke="#E2E8F0" stroke-opacity="0.55" stroke-width="3" stroke-linecap="round"/>
    <rect x="792" y="432" width="274" height="1" fill="#FFFFFF" fill-opacity="0.14"/>
    <text x="792" y="488" fill="#CBD5E1" font-family="Segoe UI, Arial, sans-serif" font-size="18">Graph prestige, field-aware normalization,</text>
    <text x="792" y="516" fill="#CBD5E1" font-family="Segoe UI, Arial, sans-serif" font-size="18">and transparent post-adjustments.</text>
  </g>

  <g opacity="0.94">
    <rect x="188" y="374" width="448" height="116" rx="20" fill="#FFFFFF" fill-opacity="0.07" stroke="#FFFFFF" stroke-opacity="0.1"/>
    <path d="M240 452L318 418L394 430L492 372L566 390L640 320L724 344L820 278" stroke="url(#accent)" stroke-width="6" stroke-linecap="round" stroke-linejoin="round"/>
    <circle cx="240" cy="452" r="8" fill="#38BDF8"/>
    <circle cx="318" cy="418" r="8" fill="#38BDF8"/>
    <circle cx="394" cy="430" r="8" fill="#38BDF8"/>
    <circle cx="492" cy="372" r="8" fill="#38BDF8"/>
    <circle cx="566" cy="390" r="8" fill="#38BDF8"/>
    <circle cx="640" cy="320" r="8" fill="#38BDF8"/>
  </g>

  <g opacity="0.94">
    <rect x="188" y="146" width="104" height="34" rx="17" fill="#E2E8F0" fill-opacity="0.08" stroke="#E2E8F0" stroke-opacity="0.12"/>
    <text x="208" y="168" fill="#E2E8F0" font-family="Segoe UI, Arial, sans-serif" font-size="14" letter-spacing="2.5">OPENALEX</text>
  </g>

  <text x="188" y="224" fill="#E2E8F0" font-family="Segoe UI, Arial, sans-serif" font-size="22" letter-spacing="4">OPEN ACADEMIC JOURNAL RANKING FRAMEWORK</text>
  <text x="186" y="302" fill="#FFFFFF" font-family="Georgia, Times New Roman, serif" font-size="78" font-weight="700">OpenSCIRanking</text>
  <text x="188" y="350" fill="#CBD5E1" font-family="Segoe UI, Arial, sans-serif" font-size="28">Citation networks, reproducible pipelines, and transparent journal scoring.</text>
  <text x="188" y="532" fill="#94A3B8" font-family="Segoe UI, Arial, sans-serif" font-size="24">自下而上的期刊排序框架：引用网络、可复现流程与可解释评分。</text>

  <g opacity="0.96">
    <rect x="1076" y="104" width="64" height="64" rx="18" fill="#FFFFFF" fill-opacity="0.07" stroke="#FFFFFF" stroke-opacity="0.12"/>
    <path d="M1108 118L1117.47 137.193L1138.65 140.272L1123.32 155.211L1126.94 176.32L1108 166.362L1089.06 176.32L1092.68 155.211L1077.35 140.272L1098.53 137.193L1108 118Z" fill="url(#gold)"/>
  </g>
</svg>
